#!OML:ASF H:\MichaelJackson\Top Level 1\Subject 1\Session 1\male.ASF
:FULLY-SPECIFIED
:DEGREES
69
root 4.76948 16.9219 -29.1318 9.67574 3.4705 -1.76817
lowerback -6.48285 0.347281 -1.16932
upperback -1.44218 0.492377 2.05815
thorax 2.11916 0.237859 2.81978
lowerneck -9.26471 -2.43344 -3.07318
upperneck 1.14 -2.95958 1.64839
head 2.02968 -1.44693 0.918408
rclavicle 2.13694e-015 -2.38542e-015
rhumerus -36.2999 2.68161 -89.9734
rradius 32.3908
rwrist 17.7162
rhand -26.6627 -18.5665
rfingers 7.12502
rthumb -0.0943422 -48.5462
lclavicle 2.13694e-015 -2.38542e-015
lhumerus -38.4325 -12.183 98.8977
lradius 39.0788
lwrist 5.85799
lhand -10.4432 3.07619
lfingers 7.12502
lthumb 15.5568 32.4705
rfemur -18.4838 2.83858 21.6499
rtibia 31.0341
rfoot -17.7999 -12.6027
rtoes 4.8373
lfemur -23.9416 8.11469 -20.1556
ltibia 35.5271
lfoot -19.3998 5.23048
ltoes 6.27227
70
root 4.7631 16.9169 -29.1398 9.71255 3.7101 -1.76914
lowerback -6.34113 0.308469 -1.13673
upperback -1.46601 0.438454 2.06568
thorax 2.01889 0.212444 2.80303
lowerneck -9.28671 -2.43523 -3.13968
upperneck 1.07607 -2.95496 1.69019
head 2.01474 -1.44347 0.943535
rclavicle 1.38404e-014 -1.98785e-014
rhumerus -36.3235 2.70035 -89.9668
rradius 32.4535
rwrist 17.6084
rhand -26.6395 -18.6008
rfingers 7.12502
rthumb -0.0718719 -48.5805
lclavicle 1.38404e-014 -1.98785e-014
lhumerus -38.4334 -12.2444 98.933
lradius 39.1944
lwrist 5.885
lhand -10.4133 3.17822
lfingers 7.12502
lthumb 15.5856 32.5703
rfemur -18.5788 2.48058 21.6981
rtibia 31.1299
rfoot -17.8893 -12.537
rtoes 3.96009
lfemur -24.4393 8.95828 -20.2182
ltibia 36.1455
lfoot -19.4721 4.16967
ltoes 5.81294
71
root 4.75693 16.9108 -29.1483 9.74099 3.96078 -1.79033
lowerback -6.1947 0.275477 -1.09426
upperback -1.47758 0.391418 2.08327
thorax 1.9282 0.190236 2.79194
lowerneck -9.30524 -2.43907 -3.20771
upperneck 0.977878 -2.95256 1.7281
head 1.98782 -1.44106 0.967655
rclavicle -5.76476e-015 -1.47101e-014
rhumerus -36.3425 2.73396 -89.951
rradius 32.5317
rwrist 17.4771
rhand -26.6141 -18.6437
rfingers 7.12502
rthumb -0.0473777 -48.6234
lclavicle -5.76476e-015 -1.47101e-014
lhumerus -38.4124 -12.3145 98.9737
lradius 39.3135
lwrist 5.908
lhand -10.3784 3.2841
lfingers 7.12502
lthumb 15.6192 32.6735
rfemur -18.6781 2.12487 21.7713
rtibia 31.2436
rfoot -17.9758 -12.4861
rtoes 3.12238
lfemur -24.9871 9.74463 -20.2483
ltibia 36.8624
lfoot -19.5313 3.11113
ltoes 5.41433
72
root 4.75114 16.9038 -29.1571 9.76103 4.21525 -1.83186
lowerback -6.03289 0.247711 -1.04019
upperback -1.4856 0.350558 2.11072
thorax 1.83221 0.171128 2.78507
lowerneck -9.31895 -2.44201 -3.27412
upperneck 0.856518 -2.94867 1.75538
head 1.95208 -1.43808 0.988213
rclavicle 9.11925e-015 7.95139e-016
rhumerus -36.3666 2.79508 -89.9329
rradius 32.6213
rwrist 17.3256
rhand -26.5787 -18.6901
rfingers 7.12502
rthumb -0.0132206 -48.6698
lclavicle 9.11925e-015 7.95139e-016
lhumerus -38.3885 -12.3811 99.0193
lradius 39.444
lwrist 5.92854
lhand -10.3502 3.40469
lfingers 7.12502
lthumb 15.6464 32.792
rfemur -18.7775 1.77087 21.8684
rtibia 31.3673
rfoot -18.061 -12.4409
rtoes 2.33634
lfemur -25.5806 10.4571 -20.24
ltibia 37.6768
lfoot -19.5709 2.06523
ltoes 5.07965
73
root 4.7459 16.8966 -29.166 9.7728 4.46366 -1.89656
lowerback -5.87793 0.232869 -0.978307
upperback -1.47697 0.326246 2.15012
thorax 1.75619 0.159906 2.78772
lowerneck -9.32297 -2.44764 -3.33922
upperneck 0.693805 -2.94823 1.77527
head 1.90085 -1.43681 1.00612
rclavicle -1.88845e-015 -2.90226e-014
rhumerus -36.3901 2.8893 -89.9047
rradius 32.7378
rwrist 17.14
rhand -26.546 -18.7368
rfingers 7.12502
rthumb 0.0184234 -48.7166
lclavicle -1.88845e-015 -2.90226e-014
lhumerus -38.3435 -12.4546 99.0744
lradius 39.5862
lwrist 5.94758
lhand -10.3151 3.50371
lfingers 7.12502
lthumb 15.6802 32.8884
rfemur -18.8725 1.42573 21.9906
rtibia 31.4908
rfoot -18.1448 -12.4009
rtoes 1.60703
lfemur -26.2151 11.1311 -20.1941
ltibia 38.5754
lfoot -19.5825 0.997991
ltoes 4.86611
74
root 4.74156 16.8892 -29.175 9.7794 4.69625 -1.98724
lowerback -5.69626 0.226581 -0.897291
upperback -1.47675 0.312482 2.20032
thorax 1.65604 0.154288 2.79131
lowerneck -9.32289 -2.45211 -3.40168
upperneck 0.528576 -2.94626 1.78321
head 1.84778 -1.43503 1.01983
rclavicle 1.01877e-015 -5.56597e-015
rhumerus -36.4428 3.03796 -89.8817
rradius 32.8792
rwrist 16.9255
rhand -26.5124 -18.7817
rfingers 7.12502
rthumb 0.0508194 -48.7614
lclavicle 1.01877e-015 -5.56597e-015
lhumerus -38.3182 -12.5034 99.133
lradius 39.7494
lwrist 5.96411
lhand -10.2702 3.59123
lfingers 7.12502
lthumb 15.7234 32.9725
rfemur -18.9638 1.08277 22.1385
rtibia 31.6048
rfoot -18.2284 -12.3473
rtoes 0.955413
lfemur -26.8893 11.7825 -20.1109
ltibia 39.5449
lfoot -19.5514 -0.110742
ltoes 4.82442
75
root 4.73874 16.8828 -29.1842 9.79417 4.91551 -2.07881
lowerback -5.53463 0.230408 -0.816083
upperback -1.46505 0.312374 2.25157
thorax 1.57809 0.155124 2.79712
lowerneck -9.32209 -2.46257 -3.4587
upperneck 0.343907 -2.95252 1.78368
head 1.7882 -1.43735 1.02983
rclavicle 1.33931e-014 -9.54166e-015
rhumerus -36.488 3.23043 -89.8572
rradius 33.0413
rwrist 16.6791
rhand -26.4686 -18.8344
rfingers 7.12502
rthumb 0.0931341 -48.8142
lclavicle 1.33931e-014 -9.54166e-015
lhumerus -38.2757 -12.5453 99.1938
lradius 39.9278
lwrist 5.98012
lhand -10.2045 3.62766
lfingers 7.12502
lthumb 15.7867 33.0039
rfemur -19.0602 0.702773 22.2826
rtibia 31.7022
rfoot -18.3119 -12.2501
rtoes 0.352368
lfemur -27.6078 12.418 -20.0285
ltibia 40.563
lfoot -19.4557 -1.2437
ltoes 4.83922
76
root 4.73729 16.8773 -29.1933 9.81252 5.11393 -2.17218
lowerback -5.39036 0.246154 -0.740749
upperback -1.4404 0.328519 2.3055
thorax 1.5222 0.16372 2.81032
lowerneck -9.32719 -2.48166 -3.50733
upperneck 0.150708 -2.97067 1.77448
head 1.72692 -1.44565 1.03469
rclavicle 1.76421e-014 2.82274e-014
rhumerus -36.5232 3.45605 -89.8275
rradius 33.2209
rwrist 16.4096
rhand -26.4162 -18.8906
rfingers 7.12502
rthumb 0.143769 -48.8703
lclavicle 1.76421e-014 2.82274e-014
lhumerus -38.216 -12.5726 99.2562
lradius 40.1185
lwrist 5.99022
lhand -10.1373 3.64346
lfingers 7.12502
lthumb 15.8515 33.0146
rfemur -19.1556 0.30768 22.4225
rtibia 31.7811
rfoot -18.4001 -12.1215
rtoes -0.185956
lfemur -28.3504 13.0175 -19.9381
ltibia 41.6109
lfoot -19.2862 -2.39236
ltoes 4.98423
77
root 4.73707 16.8726 -29.2019 9.82977 5.29718 -2.26002
lowerback -5.25773 0.267622 -0.677686
upperback -1.40566 0.352998 2.35971
thorax 1.48262 0.176206 2.83137
lowerneck -9.33503 -2.50618 -3.54925
upperneck -0.0433251 -2.99656 1.75933
head 1.66591 -1.45784 1.03614
rclavicle -1.45858e-014 -9.14409e-015
rhumerus -36.5474 3.7192 -89.798
rradius 33.408
rwrist 16.1211
rhand -26.3533 -18.9545
rfingers 7.12502
rthumb 0.20456 -48.9341
lclavicle -1.45858e-014 -9.14409e-015
lhumerus -38.1483 -12.5768 99.3166
lradius 40.3216
lwrist 6.00082
lhand -10.0826 3.63272
lfingers 7.12502
lthumb 15.9041 32.9997
rfemur -19.241 -0.0895431 22.5506
rtibia 31.842
rfoot -18.5062 -11.966
rtoes -0.583717
lfemur -29.0993 13.5775 -19.8468
ltibia 42.6656
lfoot -19.0448 -3.54055
ltoes 5.22211
78
root 4.73824 16.8687 -29.21 9.84832 5.45965 -2.3417
lowerback -5.13235 0.295446 -0.626457
upperback -1.36551 0.386657 2.41305
thorax 1.45206 0.193127 2.85881
lowerneck -9.35572 -2.53717 -3.58107
upperneck -0.224727 -3.03163 1.73679
head 1.61129 -1.4747 1.03298
rclavicle 1.53313e-014 3.10104e-014
rhumerus -36.5517 4.01293 -89.7687
rradius 33.584
rwrist 15.8235
rhand -26.2759 -19.041
rfingers 7.12502
rthumb 0.279236 -49.0206
lclavicle 1.53313e-014 3.10104e-014
lhumerus -38.0748 -12.5498 99.373
lradius 40.5299
lwrist 6.00971
lhand -10.0431 3.54647
lfingers 7.12502
lthumb 15.9422 32.9104
rfemur -19.32 -0.484253 22.6642
rtibia 31.8863
rfoot -18.621 -11.7855
rtoes -0.884695
lfemur -29.8457 14.076 -19.7541
ltibia 43.7083
lfoot -18.7326 -4.62758
ltoes 5.50885
79
root 4.74015 16.8654 -29.2169 9.85301 5.61071 -2.41438
lowerback -5.01814 0.325027 -0.598957
upperback -1.30978 0.423657 2.4664
thorax 1.44337 0.211336 2.89997
lowerneck -9.37842 -2.57531 -3.60619
upperneck -0.399766 -3.07697 1.71407
head 1.55932 -1.49666 1.02816
rclavicle 3.72721e-015 -1.78906e-014
rhumerus -36.5375 4.32664 -89.7364
rradius 33.7543
rwrist 15.531
rhand -26.2005 -19.1225
rfingers 7.12502
rthumb 0.352073 -49.1019
lclavicle 3.72721e-015 -1.78906e-014
lhumerus -37.9884 -12.4924 99.4224
lradius 40.7366
lwrist 6.01824
lhand -10.0744 3.38097
lfingers 7.12502
lthumb 15.912 32.7473
rfemur -19.3708 -0.843789 22.7628
rtibia 31.9156
rfoot -18.7377 -11.6176
rtoes -1.0799
lfemur -30.5553 14.495 -19.6467
ltibia 44.7188
lfoot -18.3894 -5.64889
ltoes 5.9443
80
root 4.74252 16.8625 -29.2221 9.83869 5.75137 -2.48875
lowerback -4.87297 0.350571 -0.58386
upperback -1.26481 0.45637 2.52243
thorax 1.40636 0.227723 2.95016
lowerneck -9.38939 -2.60564 -3.6369
upperneck -0.561654 -3.11227 1.70492
head 1.50982 -1.51337 1.0292
rclavicle 7.50412e-015 1.19271e-014
rhumerus -36.5355 4.66345 -89.7118
rradius 33.9037
rwrist 15.2636
rhand -26.1293 -19.1995
rfingers 7.12502
rthumb 0.420837 -49.1788
lclavicle 7.50412e-015 1.19271e-014
lhumerus -37.9311 -12.3808 99.4626
lradius 40.9414
lwrist 6.02247
lhand -10.2026 3.14051
lfingers 7.12502
lthumb 15.7886 32.5166
rfemur -19.3855 -1.1419 22.8581
rtibia 31.9284
rfoot -18.8474 -11.4851
rtoes -1.17661
lfemur -31.2171 14.8551 -19.5155
ltibia 45.6743
lfoot -18.0499 -6.56747
ltoes 6.47518
